<svg xmlns="http://www.w3.org/2000/svg" width="160.955" height="163" viewBox="0 0 160.955 163">
  <g id="Agregar" transform="translate(-22 -19)">
    <circle id="Elipse_3" data-name="Elipse 3" cx="39.5" cy="39.5" r="39.5" transform="translate(102 101)" fill="#80daff"/>
    <path id="Trazado_10" data-name="Trazado 10" d="M136.145,158.1V147.112H121.49V137.44l14.655-2.2V121.759h9.672l.733,13.483,13.336.586,1.026,9.966L145.818,147.7v13.922h-9.672Z" fill="#25b1fa"/>
    <path id="Trazado_9" data-name="Trazado 9" d="M23.972,173.315l2.254-33.485,15.133-12.879L65.507,120l5.129,8.207,4.836,6.888,19.491,2.491,8.793-5.276-1.026,13.483,6.888,16.267,12.9,12.457,2.2,3.664-5.276,1.905L34,180.233l-7.035-2.491Z" fill="#25b1fa"/>
    <path id="Trazado_8" data-name="Trazado 8" d="M67.646,121.129l5.525-9.716h28.578l4.191,7.621,1.143,5.906-8,9.335-19.814,2.858L68.408,124.939Z" fill="#f4cbaf"/>
    <path id="Trazado_6" data-name="Trazado 6" d="M1453.835-346.493s-4.854-9.576-3.121-17.687,10.056-14.758,10.056-14.758,20.134-15.872,38.141-4.21,12.384,28.235,12.384,28.235l-2.972,8.421-5.7-13.87-8.679,5.449-11.134,1.981v6.439s-6.249-1.488-10.409-5.377c-3.806-3.561-3.808-10.259-7.474-10.259C1457.685-362.129,1453.835-346.493,1453.835-346.493Z" transform="translate(-1394 409)" fill="#a56940"/>
    <path id="Trazado_7" data-name="Trazado 7" d="M1458.788-317.763,1446.9-331.137l1.981-6.687,4.706-2.724s2.724-14.86,3.715-15.108,7.43-5.7,7.43-5.7l9.43,13.147,10.259,2.052-1.026-6.3,9.086-1.172,6.888-5.569,2.784-1.026,6.741,23.009,4.25-2.345s2.785,4.836,2.931,5.422-5.422,11.284-5.422,11.284l-5.569,5.09-2.2,10-9.672,9.086-19.052,1.612-11.138-7.767Z" transform="translate(-1394 409)" fill="#f4cbaf"/>
    <path id="Trazado_4" data-name="Trazado 4" d="M344.664,325.755H333.918v-10.66A3.026,3.026,0,0,0,330.908,312H321.28a3.173,3.173,0,0,0-3.181,3.095v10.66H307.181A3.173,3.173,0,0,0,304,328.85v9.629a3.173,3.173,0,0,0,3.181,3.095H318.1v11a3.173,3.173,0,0,0,3.181,3.095h9.629a3.026,3.026,0,0,0,3.009-3.095v-11h10.746a3.026,3.026,0,0,0,3.009-3.095V328.85a3.026,3.026,0,0,0-3.009-3.095Zm-1.805,11H332.284a3.173,3.173,0,0,0-3.181,3.095v11h-6.19v-11a3.026,3.026,0,0,0-3.009-3.095h-11.09v-6.19H319.9a3.026,3.026,0,0,0,3.009-3.095v-10.66h6.19v10.66a3.173,3.173,0,0,0,3.181,3.095h10.575Z" transform="translate(-185.025 -192.243)"/>
    <path id="Trazado_5" data-name="Trazado 5" d="M141.613,99.523a41.219,41.219,0,0,0-33.838,17.7q-.973-.3-1.84-.582l-2.336-6.627c7.222-5.41,9.2-13.858,9.739-17.951,4.856-1.317,9.316-7.023,11.1-14.585.963-4.09-.447-7.9-3.51-9.476a6,6,0,0,0-2.744-.666c.158-1.187.323-2.638.494-4.421.4-4.17.653-8.382.653-9.45,0-.757.015-1.536.031-2.362.128-6.585.286-14.78-6.977-22.126h0a34.683,34.683,0,0,0-49.84,1.2q-.279.315-.566.635c-3.651,4.08-8.652,9.668-8.293,23.977A92.687,92.687,0,0,0,56.453,67.5a6.063,6.063,0,0,0-2.309.713c-2.94,1.589-4.288,5.313-3.355,9.268,1.788,7.575,6.262,13.288,11.13,14.591.582,4.013,2.619,12.378,9.656,17.792L68.493,116.2c-2.2.69-4.681,1.373-7.241,2.09C44.7,122.927,22,129.278,22,149.912v21.574c0,5.1,2.726,10.514,7.619,10.514H141.757c.022,0,.044,0,.066,0a41.237,41.237,0,1,0-.21-82.474ZM65.57,34.017q.3-.329.582-.653A29.163,29.163,0,0,1,87.2,23.824a29.468,29.468,0,0,1,21.761,8.535c5.834,5.9,5.7,12.673,5.588,18.648-.017.85-.032,1.653-.032,2.456,0,.51-.052,1.569-.14,2.916-1.164-4.327-2.792-8.506-5.033-10.95l-.178-.356a2.407,2.407,0,0,0-4.345.08c-3.879,8.531-7.721,8.188-14.086,7.62-.739-.066-1.491-.133-2.255-.186a3.28,3.28,0,0,0-3.563,1.857c-.785,1.823.306,3.791,2.3,6.124-6.355-.759-7.965-5.407-9.417-9.6-1.007-2.91-2.149-6.208-5.468-6.208a11.213,11.213,0,0,0-8.518,3.67c-2.467,2.648-3.857,6.423-4.63,10.123a30.467,30.467,0,0,1-.688-3.891C58.19,42.263,62.11,37.882,65.57,34.017Zm.945,55.827a2.424,2.424,0,0,0-2.407-2.31H64c-3.525,0-7.248-5.751-8.528-11.164-.49-2.077.153-3.491.958-3.927.91-.491,1.881.374,2.256.769a2.407,2.407,0,0,0,4.136-1.371,2.4,2.4,0,0,0,.313-1.362c-.256-3.692,0-14.262,4.209-18.77a6.443,6.443,0,0,1,4.7-2.129,17.094,17.094,0,0,1,1.207,2.964c1.784,5.154,5.1,14.746,19.82,12.646a2.407,2.407,0,0,0,1.289-4.155,43.7,43.7,0,0,1-3.318-3.4c5.659.491,11.432.676,16.2-6.831,3.015,5.655,4.585,16.9,4.969,21.365a2.407,2.407,0,0,0,2.4,2.2c.069,0,.138,0,.209-.009a2.4,2.4,0,0,0,2.01-1.459c.475-.47,1.2-.977,1.891-.621.883.455,1.52,2.007,1.029,4.092-1.28,5.414-5,11.165-8.528,11.165h-.06a2.426,2.426,0,0,0-1.323.367,2.4,2.4,0,0,0-1.129,1.971c-.1,1.968-1.035,12.033-9.237,17.131l-.039.025A22.216,22.216,0,0,1,87.614,110a21.75,21.75,0,0,1-11.8-3.039c-8.085-5.1-9.167-15.153-9.3-17.116Zm5.857,29.387,3.336-6.858a27.84,27.84,0,0,0,11.908,2.439A28.474,28.474,0,0,0,99.369,112.5l2.416,6.853a2.407,2.407,0,0,0,1.493,1.479q.9.307,1.9.626a40.957,40.957,0,0,0-2.909,6.927,19.267,19.267,0,0,1-28.6.628,18,18,0,0,1-4.461-8q.886-.272,1.735-.546a2.407,2.407,0,0,0,1.42-1.236ZM26.814,171.487V149.912c0-16.983,19.833-22.53,35.736-26.987.673-.189,1.358-.375,2.012-.559a24.133,24.133,0,0,0,36.064,13.793,41.249,41.249,0,0,0,21.67,41.027H29.619C28.087,177.186,26.814,174.122,26.814,171.487Zm114.8,5.7a36.424,36.424,0,1,1,36.424-36.424A36.424,36.424,0,0,1,141.613,177.186Z" transform="translate(0 0)"/>
  </g>
</svg>
