<svg xmlns="http://www.w3.org/2000/svg" width="61" height="61" viewBox="0 0 61 61">
  <path id="Positivo" d="M-985.5,665a30.307,30.307,0,0,1-11.872-2.4,30.4,30.4,0,0,1-9.695-6.536,30.4,30.4,0,0,1-6.536-9.695A30.307,30.307,0,0,1-1016,634.5a30.308,30.308,0,0,1,2.4-11.872,30.4,30.4,0,0,1,6.536-9.695,30.4,30.4,0,0,1,9.695-6.536A30.307,30.307,0,0,1-985.5,604a30.308,30.308,0,0,1,11.872,2.4,30.4,30.4,0,0,1,9.695,6.536,30.4,30.4,0,0,1,6.536,9.695A30.308,30.308,0,0,1-955,634.5a30.307,30.307,0,0,1-2.4,11.872,30.4,30.4,0,0,1-6.536,9.695,30.4,30.4,0,0,1-9.695,6.536A30.308,30.308,0,0,1-985.5,665Zm-12.65-30.825a3.98,3.98,0,0,0-3.4,1.88,4.006,4.006,0,0,0,1.273,5.512l10.176,6.359a3.96,3.96,0,0,0,.474.254,3.466,3.466,0,0,0,1.57.359c.105,0,.208,0,.305-.012a4.121,4.121,0,0,0,.671-.1,4,4,0,0,0,1.864-1c.067-.064.129-.128.185-.189a3.994,3.994,0,0,0,.444-.584,4.083,4.083,0,0,0,.229-.42l12.718-21.545a3.476,3.476,0,0,0,.4-2.649,3.474,3.474,0,0,0-1.593-2.152,3.5,3.5,0,0,0-1.8-.5,3.474,3.474,0,0,0-3,1.7L-988.644,639.4l-7.391-4.618A3.988,3.988,0,0,0-998.15,634.175Z" transform="translate(1016 -604)" fill="red"/>
</svg>
