<svg xmlns="http://www.w3.org/2000/svg" width="181.961" height="209" viewBox="0 0 181.961 209">
  <g id="verPaciente" transform="translate(-615.117 -105)">
    <path id="Trazado_22" data-name="Trazado 22" d="M-1016,717V604h122v14h13v93h-13v6Z" transform="translate(1662 -496)" fill="#fff"/>
    <g id="Trazado_17" data-name="Trazado 17" transform="translate(1764.5 -485.5)">
      <path d="M -985.5 717.9996948242188 C -987.4296875 717.9996948242188 -988.9996337890625 716.4298095703125 -988.9996337890625 714.5001220703125 L -988.9996337890625 612 L -988.9996337890625 611.5 L -989.4996337890625 611.5 L -997.9921875 611.5 C -999.92236328125 611.5 -1001.49267578125 609.9301147460938 -1001.49267578125 608.0004272460938 C -1001.49267578125 606.0702514648438 -999.92236328125 604.4999389648438 -997.9921875 604.4999389648438 L -984.9996337890625 604.4999389648438 C -984.5125732421875 604.4999389648438 -984.0532836914063 604.9302368164063 -983.7537231445313 605.291259765625 C -982.6174926757813 606.66064453125 -981.9030151367188 609.22705078125 -981.9602661132813 609.7367553710938 L -982.0004272460938 609.8091430664063 L -982.0004272460938 609.9386596679688 L -982.0004272460938 714.5001220703125 C -982.0004272460938 716.4298095703125 -983.5703125 717.9996948242188 -985.5 717.9996948242188 Z" stroke="none"/>
      <path d="M -985.5 717.4996948242188 C -983.8460083007813 717.4996948242188 -982.5004272460938 716.1541137695313 -982.5004272460938 714.5001220703125 L -982.5004272460938 609.9386596679688 L -982.5004272460938 609.6796264648438 L -982.4618530273438 609.6101684570313 C -982.5078125 608.9305419921875 -983.2247314453125 606.5662231445313 -984.28564453125 605.4439697265625 C -984.556396484375 605.1576538085938 -984.8099365234375 604.9999389648438 -984.9996337890625 604.9999389648438 L -997.9921875 604.9999389648438 C -999.6466674804688 604.9999389648438 -1000.99267578125 606.345947265625 -1000.99267578125 608.0004272460938 C -1000.99267578125 609.6544189453125 -999.6466674804688 611 -997.9921875 611 L -989.4996337890625 611 L -988.4996337890625 611 L -988.4996337890625 612 L -988.4996337890625 714.5001220703125 C -988.4996337890625 716.1541137695313 -987.1539916992188 717.4996948242188 -985.5 717.4996948242188 M -985.5 718.4996948242188 C -987.7095336914063 718.4996948242188 -989.4996337890625 716.708740234375 -989.4996337890625 714.5001220703125 L -989.4996337890625 612 L -997.9921875 612 C -1000.20166015625 612 -1001.99267578125 610.2090454101563 -1001.99267578125 608.0004272460938 C -1001.99267578125 605.7908935546875 -1000.20166015625 603.9999389648438 -997.9921875 603.9999389648438 L -984.9996337890625 603.9999389648438 C -982.791015625 603.9999389648438 -981.1815795898438 609.3644409179688 -981.5004272460938 609.9386596679688 L -981.5004272460938 714.5001220703125 C -981.5004272460938 716.708740234375 -983.29052734375 718.4996948242188 -985.5 718.4996948242188 Z" stroke="none"/>
    </g>
    <g id="Trazado_20" data-name="Trazado 20" transform="translate(1659 -499)">
      <path d="M -894.9996337890625 746.5 L -1010.999694824219 746.5 C -1013.481201171875 746.5 -1015.500122070313 744.4811401367188 -1015.500122070313 741.9996337890625 L -1015.500122070313 609.0003051757813 C -1015.500122070313 606.518798828125 -1013.481201171875 604.4999389648438 -1010.999694824219 604.4999389648438 L -894.9996337890625 604.4999389648438 C -892.5186157226563 604.4999389648438 -890.5001220703125 606.518798828125 -890.5001220703125 609.0003051757813 L -890.5001220703125 741.9996337890625 C -890.5001220703125 744.4811401367188 -892.5186157226563 746.5 -894.9996337890625 746.5 Z M -1010.499816894531 610.5001220703125 L -1010.499816894531 611.0001220703125 L -1010.499816894531 744.0003051757813 L -1010.499816894531 744.5003051757813 L -1009.999816894531 744.5003051757813 L -897.0003051757813 744.5003051757813 L -896.5003051757813 744.5003051757813 L -896.5003051757813 744.0003051757813 L -896.5003051757813 611.0001220703125 L -896.5003051757813 610.5001220703125 L -897.0003051757813 610.5001220703125 L -1009.999816894531 610.5001220703125 L -1010.499816894531 610.5001220703125 Z" stroke="none"/>
      <path d="M -894.9996337890625 746 C -892.7943115234375 746 -891.0001220703125 744.2054443359375 -891.0001220703125 741.9996337890625 L -891.0001220703125 609.0003051757813 C -891.0001220703125 606.7944946289063 -892.7943115234375 604.9999389648438 -894.9996337890625 604.9999389648438 L -1010.999694824219 604.9999389648438 C -1013.20556640625 604.9999389648438 -1015.000122070313 606.7944946289063 -1015.000122070313 609.0003051757813 L -1015.000122070313 741.9996337890625 C -1015.000122070313 744.2054443359375 -1013.20556640625 746 -1010.999694824219 746 L -894.9996337890625 746 M -1010.999816894531 610.0001220703125 L -1009.999816894531 610.0001220703125 L -897.0003051757813 610.0001220703125 L -896.0003051757813 610.0001220703125 L -896.0003051757813 611.0001220703125 L -896.0003051757813 744.0003051757813 L -896.0003051757813 745.0003051757813 L -897.0003051757813 745.0003051757813 L -1009.999816894531 745.0003051757813 L -1010.999816894531 745.0003051757813 L -1010.999816894531 744.0003051757813 L -1010.999816894531 611.0001220703125 L -1010.999816894531 610.0001220703125 M -894.9996337890625 747 L -1010.999694824219 747 C -1013.756958007813 747 -1016.000122070313 744.7568359375 -1016.000122070313 741.9996337890625 L -1016.000122070313 609.0003051757813 C -1016.000122070313 606.2431030273438 -1013.756958007813 603.9999389648438 -1010.999694824219 603.9999389648438 L -894.9996337890625 603.9999389648438 C -892.2428588867188 603.9999389648438 -890.0001220703125 606.2431030273438 -890.0001220703125 609.0003051757813 L -890.0001220703125 741.9996337890625 C -890.0001220703125 744.7568359375 -892.2428588867188 747 -894.9996337890625 747 Z M -1009.999816894531 611.0001220703125 L -1009.999816894531 744.0003051757813 L -897.0003051757813 744.0003051757813 L -897.0003051757813 611.0001220703125 L -1009.999816894531 611.0001220703125 Z" stroke="none"/>
    </g>
    <path id="Trazado_16" data-name="Trazado 16" d="M1636.914-306.841v-97.88l32.519-10.3,24.792,3.22,17.387,14.167,35.1,3.542H1800.8l9.337,15.133-3.22,76.952-11.269,6.439-101.422,3.542-50.872-3.542Z" transform="translate(-1016 604)" fill="#f4d270"/>
    <g id="Trazado_19" data-name="Trazado 19" transform="translate(1631.117 -419.531)">
      <path d="M -853.5717163085938 733.031494140625 L -996.4674072265625 733.031494140625 C -1001.551208496094 733.031494140625 -1006.330688476563 731.0516967773438 -1009.925537109375 727.4569091796875 C -1013.520324707031 723.8619995117188 -1015.500122070313 719.08251953125 -1015.500122070313 713.9988403320313 L -1015.500122070313 642.03662109375 L -1015.500122070313 618.3917846679688 C -1015.500122070313 614.6810913085938 -1014.054992675781 611.1924438476563 -1011.430969238281 608.5686645507813 C -1008.807006835938 605.9449462890625 -1005.318237304688 604.5 -1001.607299804688 604.5 L -957.6119384765625 604.5 L -939.46533203125 622.8911743164063 L -939.3184204101563 623.0400390625 L -939.1092529296875 623.0399780273438 L -853.571533203125 623.0048217773438 C -848.4880981445313 623.0048217773438 -843.7085571289063 624.9845581054688 -840.1136474609375 628.579345703125 C -836.518798828125 632.1741333007813 -834.5390014648438 636.9533081054688 -834.5390014648438 642.03662109375 L -834.5390014648438 713.9988403320313 C -834.5390014648438 719.0824584960938 -836.518798828125 723.8619384765625 -840.1136474609375 727.4569091796875 C -843.7084350585938 731.0516967773438 -848.4879760742188 733.031494140625 -853.5717163085938 733.031494140625 Z M -995.9022216796875 614.4475708007813 C -1003.506225585938 614.4475708007813 -1009.692504882813 620.2935180664063 -1009.692504882813 627.4791259765625 L -1009.692504882813 648.0675048828125 L -1009.692504882813 710.7282104492188 C -1009.692504882813 720.3818359375 -1001.377258300781 728.235595703125 -991.156494140625 728.235595703125 L -859.204833984375 728.235595703125 C -848.9840087890625 728.235595703125 -840.6688232421875 720.3818359375 -840.6688232421875 710.7282104492188 L -840.6688232421875 648.0675048828125 C -840.6688232421875 638.4140014648438 -848.9840087890625 630.5602416992188 -859.204833984375 630.5602416992188 L -942.53662109375 631.3247680664063 L -958.9628295898438 614.5972290039063 L -959.1098022460938 614.4475708007813 L -959.319580078125 614.4475708007813 L -995.9022216796875 614.4475708007813 Z" stroke="none"/>
      <path d="M -853.5717163085938 732.531494140625 C -848.62158203125 732.531494140625 -843.9675903320313 730.603759765625 -840.4672241210938 727.1033325195313 C -836.966796875 723.6028442382813 -835.0390014648438 718.9489135742188 -835.0390014648438 713.9988403320313 L -835.0390014648438 642.03662109375 C -835.0390014648438 637.0869140625 -836.966796875 632.4332275390625 -840.4671630859375 628.932861328125 C -843.9676513671875 625.4325561523438 -848.6216430664063 623.5048217773438 -853.5712890625 623.5048217773438 L -939.1090087890625 623.5399780273438 L -939.5274047851563 623.5401611328125 L -939.8212890625 623.2423706054688 L -957.821044921875 605 L -1001.607299804688 605 C -1005.184692382813 605 -1008.547912597656 606.3929443359375 -1011.077392578125 608.9222412109375 C -1013.606994628906 611.4515991210938 -1015.000122070313 614.8146362304688 -1015.000122070313 618.3917846679688 L -1015.000122070313 642.03662109375 L -1015.000122070313 713.9988403320313 C -1015.000122070313 718.948974609375 -1013.072387695313 723.6029052734375 -1009.571960449219 727.1033325195313 C -1006.071533203125 730.603759765625 -1001.417602539063 732.531494140625 -996.4674072265625 732.531494140625 L -853.5717163085938 732.531494140625 M -995.9022216796875 613.9475708007813 L -959.319580078125 613.9475708007813 L -958.9000244140625 613.9475708007813 L -958.6060791015625 614.2469482421875 L -942.3287353515625 630.8228759765625 L -859.2139892578125 630.060302734375 L -859.2094116210938 630.0602416992188 L -859.204833984375 630.0602416992188 C -848.7083129882813 630.0602416992188 -840.1688232421875 638.1382446289063 -840.1688232421875 648.0675048828125 L -840.1688232421875 710.7282104492188 C -840.1688232421875 720.6575317382813 -848.7083129882813 728.735595703125 -859.204833984375 728.735595703125 L -991.156494140625 728.735595703125 C -1001.652954101563 728.735595703125 -1010.192504882813 720.6575317382813 -1010.192504882813 710.7282104492188 L -1010.192504882813 648.0675048828125 L -1010.192504882813 627.4791259765625 C -1010.192504882813 620.017822265625 -1003.781921386719 613.9475708007813 -995.9022216796875 613.9475708007813 M -853.5717163085938 733.531494140625 L -996.4674072265625 733.531494140625 C -1001.684692382813 733.531494140625 -1006.589782714844 731.499755859375 -1010.279052734375 727.8104248046875 C -1013.968322753906 724.1211547851563 -1016.000122070313 719.216064453125 -1016.000122070313 713.9988403320313 L -1016.000122070313 642.03662109375 L -1016.000122070313 618.3917846679688 C -1016.000122070313 614.5475463867188 -1014.502990722656 610.933349609375 -1011.784484863281 608.215087890625 C -1009.066101074219 605.4969482421875 -1005.451782226563 604 -1001.607299804688 604 L -957.4028930664063 604 L -939.1094360351563 622.5399780273438 L -853.5717163085938 622.5048217773438 C -848.3544921875 622.5048217773438 -843.449462890625 624.5365600585938 -839.7600708007813 628.2257690429688 C -836.07080078125 631.9149780273438 -834.0390014648438 636.8197631835938 -834.0390014648438 642.03662109375 L -834.0390014648438 713.9988403320313 C -834.0390014648438 719.216064453125 -836.07080078125 724.12109375 -839.7600708007813 727.8104248046875 C -843.4494018554688 731.499755859375 -848.3544311523438 733.531494140625 -853.5717163085938 733.531494140625 Z M -995.9022216796875 614.9475708007813 C -1003.23046875 614.9475708007813 -1009.192504882813 620.5692138671875 -1009.192504882813 627.4791259765625 L -1009.192504882813 648.0675048828125 L -1009.192504882813 710.7282104492188 C -1009.192504882813 720.1060791015625 -1001.1015625 727.735595703125 -991.156494140625 727.735595703125 L -859.204833984375 727.735595703125 C -849.259765625 727.735595703125 -841.1688232421875 720.1060791015625 -841.1688232421875 710.7282104492188 L -841.1688232421875 648.0675048828125 C -841.1688232421875 638.689697265625 -849.259765625 631.0602416992188 -859.204833984375 631.0602416992188 L -942.7445068359375 631.8267211914063 L -959.319580078125 614.9475708007813 L -995.9022216796875 614.9475708007813 Z" stroke="none"/>
    </g>
    <g id="Rectángulo_26" data-name="Rectángulo 26" transform="translate(720 146)" fill="#80daff" stroke="#80daff" stroke-width="1">
      <rect width="35" height="9" stroke="none"/>
      <rect x="0.5" y="0.5" width="34" height="8" fill="none"/>
    </g>
    <g id="Trazado_18" data-name="Trazado 18" transform="translate(1736 -485)" fill="#25b1fa">
      <path d="M -982.9998168945313 624.4996337890625 L -1014.000305175781 624.4996337890625 C -1014.827331542969 624.4996337890625 -1015.500122070313 623.8268432617188 -1015.500122070313 622.9998168945313 L -1015.500122070313 605.9996948242188 C -1015.500122070313 605.1727294921875 -1014.827331542969 604.4999389648438 -1014.000305175781 604.4999389648438 L -982.9998168945313 604.4999389648438 C -982.1727905273438 604.4999389648438 -981.5 605.1727294921875 -981.5 605.9996948242188 L -981.5 622.9998168945313 C -981.5 623.8268432617188 -982.1727905273438 624.4996337890625 -982.9998168945313 624.4996337890625 Z M -1008.999938964844 609.500244140625 C -1009.826965332031 609.500244140625 -1010.499816894531 610.173095703125 -1010.499816894531 611.0001220703125 L -1010.499816894531 618.0003051757813 C -1010.499816894531 618.827392578125 -1009.826965332031 619.500244140625 -1008.999938964844 619.500244140625 L -988.000244140625 619.500244140625 C -987.1731567382813 619.500244140625 -986.5003051757813 618.827392578125 -986.5003051757813 618.0003051757813 L -986.5003051757813 611.0001220703125 C -986.5003051757813 610.173095703125 -987.1731567382813 609.500244140625 -988.000244140625 609.500244140625 L -1008.999938964844 609.500244140625 Z" stroke="none"/>
      <path d="M -982.9998168945313 623.9996337890625 C -982.4485473632813 623.9996337890625 -982 623.5510864257813 -982 622.9998168945313 L -982 605.9996948242188 C -982 605.4484252929688 -982.4485473632813 604.9999389648438 -982.9998168945313 604.9999389648438 L -1014.000305175781 604.9999389648438 C -1014.551574707031 604.9999389648438 -1015.000122070313 605.4484252929688 -1015.000122070313 605.9996948242188 L -1015.000122070313 622.9998168945313 C -1015.000122070313 623.5510864257813 -1014.551574707031 623.9996337890625 -1014.000305175781 623.9996337890625 L -982.9998168945313 623.9996337890625 M -1008.999938964844 609.000244140625 L -988.000244140625 609.000244140625 C -986.8974609375 609.000244140625 -986.0003051757813 609.8973999023438 -986.0003051757813 611.0001220703125 L -986.0003051757813 618.0003051757813 C -986.0003051757813 619.1030883789063 -986.8974609375 620.000244140625 -988.000244140625 620.000244140625 L -1008.999938964844 620.000244140625 C -1010.102661132813 620.000244140625 -1010.999816894531 619.1030883789063 -1010.999816894531 618.0003051757813 L -1010.999816894531 611.0001220703125 C -1010.999816894531 609.8973999023438 -1010.102661132813 609.000244140625 -1008.999938964844 609.000244140625 M -982.9998168945313 624.9996337890625 L -1014.000305175781 624.9996337890625 C -1015.10302734375 624.9996337890625 -1016.000122070313 624.1025390625 -1016.000122070313 622.9998168945313 L -1016.000122070313 605.9996948242188 C -1016.000122070313 604.8970336914063 -1015.10302734375 603.9999389648438 -1014.000305175781 603.9999389648438 L -982.9998168945313 603.9999389648438 C -981.8970947265625 603.9999389648438 -981 604.8970336914063 -981 605.9996948242188 L -981 622.9998168945313 C -981 624.1025390625 -981.8970947265625 624.9996337890625 -982.9998168945313 624.9996337890625 Z M -1008.999938964844 610.000244140625 C -1009.55126953125 610.000244140625 -1009.999816894531 610.4487915039063 -1009.999816894531 611.0001220703125 L -1009.999816894531 618.0003051757813 C -1009.999816894531 618.5516357421875 -1009.55126953125 619.000244140625 -1008.999938964844 619.000244140625 L -988.000244140625 619.000244140625 C -987.4489135742188 619.000244140625 -987.0003051757813 618.5516357421875 -987.0003051757813 618.0003051757813 L -987.0003051757813 611.0001220703125 C -987.0003051757813 610.4487915039063 -987.4489135742188 610.000244140625 -988.000244140625 610.000244140625 L -1008.999938964844 610.000244140625 Z" stroke="none" fill="#25b1fa"/>
    </g>
    <g id="Rectángulo_27" data-name="Rectángulo 27" transform="translate(720 160)" fill="#80daff" stroke="#80daff" stroke-width="1">
      <rect width="35" height="9" stroke="none"/>
      <rect x="0.5" y="0.5" width="34" height="8" fill="none"/>
    </g>
    <g id="Rectángulo_28" data-name="Rectángulo 28" transform="translate(720 174)" fill="#80daff" stroke="#80daff" stroke-width="1">
      <rect width="35" height="9" stroke="none"/>
      <rect x="0.5" y="0.5" width="34" height="8" fill="none"/>
    </g>
    <g id="Rectángulo_29" data-name="Rectángulo 29" transform="translate(720 188)" fill="#80daff" stroke="#80daff" stroke-width="1">
      <rect width="35" height="9" stroke="none"/>
      <rect x="0.5" y="0.5" width="34" height="8" fill="none"/>
    </g>
    <path id="Trazado_21" data-name="Trazado 21" d="M-1009.483,660.277H-1016V647.911a14.142,14.142,0,0,1,2.462-3.952,25.642,25.642,0,0,1,4.31-3.591l8.723-.257,3.4-4.822a18.911,18.911,0,0,1-5.57-13.789,19.359,19.359,0,0,1,4.247-12.374A13.284,13.284,0,0,1-988.176,604a13.284,13.284,0,0,1,10.253,5.125,19.359,19.359,0,0,1,4.247,12.374,20.284,20.284,0,0,1-1.57,7.928,17.284,17.284,0,0,1-4.2,6.043l3.27,4.64,8.723.257a25.785,25.785,0,0,1,4.31,3.591,13.988,13.988,0,0,1,2.462,3.952v12.364h-6.517V648.1l-2.411-2.137h-8.107L-985,638.726l.286-.228a12.191,12.191,0,0,1-3.462.5,12.228,12.228,0,0,1-4.01-.678l.507.4-7.285,7.235h-8.107l-2.412,2.137v12.179ZM-988.175,611c-4.136,0-7.5,4.935-7.5,11s3.365,11,7.5,11,7.5-4.935,7.5-11S-984.039,611-988.175,611Z" transform="translate(1673.175 -485.5)" fill="#25b1fa"/>
  </g>
</svg>
